Coordinates
version=1
nRows=34
nColumns=38
inDegrees=no

Units are S.I. units (second, meters, Newtons, ...)
If the header above contains a line with 'inDegrees', this indicates whether rotational values are in degrees (yes) or radians (no).

endheader
time	pelvis_tilt	pelvis_list	pelvis_rotation	pelvis_tx	pelvis_ty	pelvis_tz	hip_flexion_r	hip_adduction_r	hip_rotation_r	knee_angle_r	ankle_angle_r	subtalar_angle_r	mtp_angle_r	hip_flexion_l	hip_adduction_l	hip_rotation_l	knee_angle_l	ankle_angle_l	subtalar_angle_l	mtp_angle_l	lumbar_extension	lumbar_bending	lumbar_rotation	arm_flex_r	arm_add_r	arm_rot_r	elbow_flex_r	pro_sup_r	wrist_flex_r	wrist_dev_r	arm_flex_l	arm_add_l	arm_rot_l	elbow_flex_l	pro_sup_l	wrist_flex_l	wrist_dev_l
25	0.300652	1.46581	1.27251	0.759746	0.141899	0.998502	0.118158	-0.0454476	-0.176363	0.257564	0.128146	0	0	-0.0159286	-0.0763044	0.508759	0	-0.698132	0	0	-0.0116417	0.0556913	0.078649	0.0692829	-0.214139	-0.0405267	0.226753	1.56926	0	0	0.136142	-0.195597	0.332594	0.219805	1.5708	0	0
25.01	0.321982	1.4701	1.2439	0.761201	0.143081	0.99856	0.106412	-0.0415039	-0.177235	0.243529	0.124397	0	0	-0.0252157	-0.0793073	0.51788	0	-0.698132	0	0	-0.0134999	0.0534854	0.0854833	0.0649945	-0.210633	-0.0269603	0.229802	1.54733	0	0	0.129294	-0.201677	0.336519	0.223069	1.5708	0	0
25.02	0.266254	1.46203	1.30576	0.759972	0.140853	0.997972	0.132506	-0.049016	-0.174624	0.273935	0.133445	0	0	-0.0087647	-0.0737672	0.514247	0	-0.698132	0	0	-0.0158715	0.0508695	0.0823165	0.0706939	-0.214816	-0.0251342	0.233368	1.5444	0	0	0.138673	-0.199557	0.340829	0.228961	1.5708	0	0
25.03	0.251841	1.46095	1.319	0.760105	0.140378	0.997767	0.138545	-0.0506413	-0.172552	0.281455	0.135497	0	0	-0.0061961	-0.0723795	0.5144	0	-0.698132	0	0	-0.0196968	0.0484262	0.0848219	0.07389	-0.213452	-0.0412975	0.232952	1.56551	0	0	0.14136	-0.200422	0.340222	0.231429	1.5708	0	0
25.04	0.236405	1.45901	1.33303	0.760252	0.13978	0.99748	0.146282	-0.0524513	-0.171263	0.290285	0.137812	0	0	-0.00248477	-0.0711581	0.516406	0	-0.698132	0	0	-0.0227939	0.0461166	0.0869104	0.0761047	-0.213397	-0.0405598	0.235099	1.56414	0	0	0.143484	-0.201783	0.342892	0.234779	1.5708	0	0
25.05	0.236992	1.46082	1.32382	0.761471	0.140413	0.99737	0.149904	-0.0522962	-0.17278	0.301408	0.142077	0	0	-0.00712634	-0.0723227	0.525626	0	-0.698132	0	0	-0.0245379	0.0434692	0.0940468	0.0753724	-0.210336	-0.0395596	0.236343	1.56263	0	0	0.138868	-0.205734	0.343399	0.236891	1.5708	0	0
25.06	0.219055	1.45766	1.34111	0.761509	0.139572	0.996907	0.160133	-0.0544396	-0.172078	0.312454	0.145342	0	0	-0.00147347	-0.0711767	0.533457	0	-0.698132	0	0	-0.0272679	0.0412846	0.0940982	0.0771816	-0.212061	-0.0179957	0.241922	1.53313	0	0	0.140036	-0.208028	0.347863	0.24313	1.5708	0	0
25.07	0.203503	1.45598	1.35547	0.76157	0.138785	0.99652	0.168276	-0.0565506	-0.170235	0.322521	0.148427	0	0	0.00253782	-0.069613	0.535957	0	-0.698132	0	0	-0.0324616	0.0389682	0.0945599	0.0812823	-0.2124	-0.0156872	0.244295	1.53109	0	0	0.142552	-0.209599	0.34962	0.247462	1.5708	0	0
25.08	0.187735	1.45408	1.36984	0.76162	0.137942	0.996049	0.177003	-0.0587509	-0.168509	0.333079	0.151836	0	0	0.00708918	-0.0679753	0.538155	0	-0.698132	0	0	-0.0378708	0.0367374	0.0947612	0.0855038	-0.213037	-0.0109958	0.246707	1.52999	0	0	0.145364	-0.211076	0.351364	0.251318	1.5708	0	0
25.09	0.172282	1.45208	1.38395	0.761643	0.137035	0.995493	0.186169	-0.0609998	-0.166636	0.344271	0.15534	0	0	0.012098	-0.0662604	0.540852	0	-0.698132	0	0	-0.0437635	0.0345787	0.0945775	0.0900757	-0.213796	-0.0067099	0.249807	1.52768	0	0	0.148589	-0.212469	0.353563	0.255082	1.5708	0	0
25.1	0.157693	1.45035	1.39727	0.761602	0.136062	0.994885	0.195126	-0.0632072	-0.164403	0.355852	0.159196	0	0	0.0170822	-0.0644706	0.543071	0	-0.698132	0	0	-0.0504996	0.0324585	0.0940106	0.0951156	-0.21453	-0.00394291	0.253359	1.52465	0	0	0.15224	-0.213838	0.356397	0.258555	1.5708	0	0
25.11	0.14369	1.44872	1.40996	0.7616	0.135116	0.994235	0.20403	-0.0653792	-0.161823	0.36741	0.16319	0	0	0.0222458	-0.0625869	0.545391	0	-0.698132	0	0	-0.0580241	0.0304331	0.0931238	0.100747	-0.215328	-0.00127366	0.256973	1.5221	0	0	0.156255	-0.215096	0.359417	0.261924	1.5708	0	0
25.12	0.12871	1.44721	1.42342	0.761528	0.134066	0.993575	0.212976	-0.0677428	-0.159279	0.379132	0.167078	0	0	0.0273169	-0.0605011	0.548879	0	-0.698132	0	0	-0.0661586	0.0282267	0.092152	0.106732	-0.216005	0.00151999	0.260645	1.52034	0	0	0.160285	-0.216441	0.361599	0.265787	1.5708	0	0
25.13	0.111942	1.44603	1.4382	0.761508	0.133068	0.992926	0.221699	-0.0703154	-0.156086	0.390882	0.170978	0	0	0.0320697	-0.0580431	0.550659	0	-0.698132	0	0	-0.0751486	0.0255424	0.0918154	0.114171	-0.214976	-0.0136977	0.26168	1.5437	0	0	0.165021	-0.217571	0.363074	0.269009	1.5708	0	0
25.14	0.0949662	1.44483	1.45316	0.761479	0.132014	0.99223	0.230726	-0.0729387	-0.15243	0.403064	0.174999	0	0	0.0367623	-0.0555882	0.553994	0	-0.698132	0	0	-0.0842654	0.0228062	0.0909103	0.120601	-0.215443	-0.00899958	0.265589	1.53923	0	0	0.169473	-0.219154	0.365359	0.272811	1.5708	0	0
25.15	0.0781246	1.44367	1.46786	0.761502	0.130947	0.991464	0.23987	-0.0755095	-0.149185	0.415846	0.17952	0	0	0.0411931	-0.0531826	0.554684	0.00011695	-0.698132	0	0	-0.0929039	0.0196466	0.0899566	0.126615	-0.215295	-0.00383593	0.269512	1.53316	0	0	0.173868	-0.221162	0.367512	0.276615	1.5708	0	0
25.16	0.0489531	1.44034	1.49663	0.761374	0.129545	0.991016	0.251789	-0.0811286	-0.144869	0.4284	0.18458	0	0	0.0446339	-0.0546161	0.553455	0	-0.698132	0	0	-0.10111	0.0158577	0.0879635	0.131798	-0.217408	0.0202261	0.276276	1.50124	0	0	0.178585	-0.223015	0.370734	0.281675	1.5708	0	0
25.17	0.0335084	1.43807	1.51031	0.761256	0.128213	0.98997	0.263239	-0.0834629	-0.139581	0.442944	0.189452	0	0	0.055496	-0.0495902	0.554708	1.84773e-07	-0.698132	0	0	-0.109026	0.0134161	0.0872233	0.137827	-0.21772	0.0243713	0.279698	1.49788	0	0	0.182598	-0.225254	0.375315	0.286733	1.56608	0	0
25.18	0.0192195	1.43576	1.52249	0.761181	0.126874	0.988819	0.274887	-0.0855372	-0.133923	0.457636	0.194193	0	0	0.0661353	-0.0447089	0.554708	1.63965e-06	-0.698132	0	0	-0.117257	0.0110889	0.0870603	0.145242	-0.216319	0.00955047	0.2801	1.52255	0	0	0.187426	-0.226208	0.371	0.289479	1.5708	0	0
25.19	-0.00658801	1.43185	1.54384	0.761277	0.125366	0.98742	0.290523	-0.0888959	-0.125599	0.475867	0.200317	0	0	0.0907881	-0.0308707	0.502299	0.0390393	-0.698132	0	0	-0.123135	0.00669066	0.0883141	0.149263	-0.218936	0.0434275	0.286971	1.47253	0	0	0.189208	-0.231877	0.392616	0.300322	1.53472	0	0
25.2	-0.0242843	1.42797	1.55803	0.761291	0.123831	0.985899	0.305765	-0.091296	-0.11844	0.493482	0.205795	0	0	0.109834	-0.0226544	0.48111	0.0697871	-0.698132	0	0	-0.12943	0.00357429	0.0891556	0.155378	-0.219099	0.0466134	0.289672	1.46805	0	0	0.192836	-0.234195	0.393843	0.305583	1.53012	0	0
25.21	-0.0407238	1.42439	1.57199	0.76118	0.122393	0.984296	0.320354	-0.0938777	-0.112014	0.511044	0.211632	0	0	0.127526	-0.0151978	0.465358	0.0981036	-0.698132	0	0	-0.135704	0.000698912	0.0887608	0.161164	-0.219228	0.0497593	0.292494	1.46321	0	0	0.195917	-0.236594	0.394483	0.311167	1.52589	0	0
25.22	-0.055089	1.42266	1.58408	0.76106	0.121135	0.982813	0.33199	-0.0960577	-0.105776	0.527125	0.217091	0	0	0.139957	-0.00931243	0.45878	0.11964	-0.698132	0	0	-0.143584	-0.00188878	0.0877906	0.167098	-0.219257	0.053497	0.295144	1.45791	0	0	0.198749	-0.239013	0.394705	0.316427	1.52185	0	0
25.23	-0.0508741	1.41377	1.57737	0.761278	0.119485	0.980444	0.354067	-0.0940197	-0.0962786	0.547606	0.223045	0	0	0.189349	-0.000501796	0.354774	0.202446	-0.698132	0	0	-0.142621	-0.00212918	0.0880827	0.173296	-0.214183	0.00955969	0.291956	1.52211	0	0	0.199217	-0.241818	0.391653	0.32321	1.52184	0	0
25.24	-0.0568905	1.40926	1.58101	0.761311	0.118038	0.978537	0.370058	-0.0941332	-0.0883257	0.565865	0.228403	0	0	0.212337	0.00357699	0.328808	0.238641	-0.698132	0	0	-0.146807	-0.00386165	0.0871452	0.1781	-0.213064	0.00845974	0.29487	1.52363	0	0	0.200505	-0.244787	0.389612	0.329424	1.51857	0	0
25.25	-0.0619703	1.40495	1.58368	0.761355	0.116568	0.976603	0.385723	-0.0938761	-0.0803105	0.583922	0.233588	0	0	0.234708	0.00690107	0.305585	0.273774	-0.698132	0	0	-0.151239	-0.00553833	0.0865366	0.182381	-0.211877	0.00673227	0.298677	1.52536	0	0	0.202307	-0.247607	0.387761	0.334991	1.51539	0	0
25.26	-0.0660749	1.40076	1.58548	0.761385	0.115084	0.974622	0.401105	-0.0933376	-0.0725063	0.601684	0.238635	0	0	0.256525	0.00970167	0.285742	0.307888	-0.698132	0	0	-0.155762	-0.00697298	0.086131	0.186116	-0.21085	0.0050959	0.303174	1.52722	0	0	0.204576	-0.250137	0.385883	0.339836	1.51228	0	0
25.27	-0.068741	1.39659	1.58592	0.761414	0.113577	0.972592	0.416278	-0.0923481	-0.064543	0.618994	0.243381	0	0	0.277723	0.0119617	0.269338	0.340615	-0.698132	0	0	-0.160361	-0.0080417	0.0860124	0.189484	-0.21015	0.00404317	0.308067	1.52879	0	0	0.207402	-0.252362	0.384294	0.343782	1.50946	0	0
25.28	-0.069994	1.3926	1.58499	0.761443	0.112072	0.97053	0.431105	-0.090974	-0.0566955	0.635915	0.247879	0	0	0.297807	0.0136298	0.255783	0.371197	-0.698132	0	0	-0.165249	-0.00872518	0.086251	0.192471	-0.209795	0.003003	0.313383	1.52952	0	0	0.210715	-0.254309	0.383594	0.347197	1.50703	0	0
25.29	-0.0687159	1.38882	1.58158	0.761462	0.110575	0.968429	0.445559	-0.0889661	-0.049208	0.65262	0.252258	0	0	0.317103	0.0146906	0.244762	0.400478	-0.698132	0	0	-0.170441	-0.00872708	0.0868964	0.195165	-0.209929	0.00176605	0.318872	1.52916	0	0	0.214376	-0.255997	0.384214	0.350457	1.50512	0	0
25.3	-0.0649083	1.38523	1.5762	0.761418	0.109063	0.966292	0.459598	-0.0867477	-0.0430046	0.669102	0.256584	0	0	0.335559	0.0151879	0.23564	0.428275	-0.698132	0	0	-0.175991	-0.00795788	0.0873071	0.19775	-0.210587	0.000770711	0.324704	1.52835	0	0	0.218255	-0.257618	0.386618	0.35379	1.50388	0	0
25.31	-0.0688807	1.38419	1.58037	0.761386	0.107997	0.964059	0.469847	-0.0929967	-0.0566645	0.685729	0.264695	0	0	0.349908	0.0171971	0.226927	0.454333	-0.698132	0	0	-0.183479	-0.00907206	0.0860436	0.199272	-0.210408	8.67583e-05	0.33089	1.52749	0	0	0.221959	-0.260791	0.39097	0.357602	1.50352	0	0
25.32	-0.0608803	1.37915	1.56836	0.761324	0.106101	0.961982	0.486812	-0.0825528	-0.0296473	0.702966	0.265372	0	0	0.368935	0.0159739	0.219572	0.479317	-0.698132	0	0	-0.188898	-0.00722119	0.0895217	0.202665	-0.212816	0.000615449	0.337017	1.52663	0	0	0.227298	-0.260915	0.395547	0.360125	1.50305	0	0
25.33	-0.0616762	1.37769	1.56777	0.761196	0.104735	0.959922	0.498102	-0.0809972	-0.0225282	0.719159	0.269961	0	0	0.382769	0.0171795	0.214247	0.502787	-0.698132	0	0	-0.197465	-0.00747275	0.0904488	0.20536	-0.214124	0.00120082	0.343064	1.52559	0	0	0.232615	-0.262779	0.401224	0.363595	1.50274	0	0
